HIERARCHY
ROOT Hips
{
  OFFSET -35.4901 99.2528 17.4586
  CHANNELS 6 Xposition Yposition Zposition Zrotation Xrotation Yrotation
  JOINT LeftUpLeg
  {
    OFFSET 8.64259 1.95398 -2.38835
    CHANNELS 3 Zrotation Xrotation Yrotation
    JOINT LeftLeg
    {
      OFFSET 43.7702 0 0
      CHANNELS 3 Zrotation Xrotation Yrotation
      JOINT LeftFoot
      {
        OFFSET 40.6238 0 0
        CHANNELS 3 Zrotation Xrotation Yrotation
        JOINT LeftToeBase
        {
          OFFSET 12.7242 0 0
          CHANNELS 3 Zrotation Xrotation Yrotation
          End Site
          {
            OFFSET 0 0 0
          }
        }
      }
    }
  }
  JOINT RightUpLeg
  {
    OFFSET -8.2249 1.95398 -2.59336
    CHANNELS 3 Zrotation Xrotation Yrotation
    JOINT RightLeg
    {
      OFFSET 43.5653 0 0
      CHANNELS 3 Zrotation Xrotation Yrotation
      JOINT RightFoot
      {
        OFFSET 40.6238 0 0
        CHANNELS 3 Zrotation Xrotation Yrotation
        JOINT RightToeBase
        {
          OFFSET 12.7242 0 0
          CHANNELS 3 Zrotation Xrotation Yrotation
          End Site
          {
            OFFSET 0 0 0
          }
        }
      }
    }
  }
  JOINT Spine
  {
    OFFSET 0.165834 0.87714 6.61349
    CHANNELS 3 Zrotation Xrotation Yrotation
    JOINT Spine1
    {
      OFFSET 7.38963 1.71661e-005 0
      CHANNELS 3 Zrotation Xrotation Yrotation
      JOINT Spine2
      {
        OFFSET 11.9445 1.14441e-005 0
        CHANNELS 3 Zrotation Xrotation Yrotation
        JOINT Spine3
        {
          OFFSET 14.7254 4.19617e-005 0
          CHANNELS 3 Zrotation Xrotation Yrotation
          JOINT Spine4
          {
            OFFSET 10.9679 0 0
            CHANNELS 3 Zrotation Xrotation Yrotation
            JOINT RightShoulder
            {
              OFFSET 2.46616 -1.6653 3.69651
              CHANNELS 3 Zrotation Xrotation Yrotation
              JOINT RightArm
              {
                OFFSET 13.0012 0 0
                CHANNELS 3 Zrotation Xrotation Yrotation
                JOINT RightForeArm
                {
                  OFFSET 28.7848 1.52588e-005 0
                  CHANNELS 3 Zrotation Xrotation Yrotation
                  JOINT RightHand
                  {
                    OFFSET 26.5688 1.52588e-005 0
                    CHANNELS 3 Zrotation Xrotation Yrotation
                    End Site
                    {
                      OFFSET 0 0 0
                    }
                  }
                }
              }
            }
            JOINT LeftShoulder
            {
              OFFSET 2.38034 -1.29275 -3.7523
              CHANNELS 3 Zrotation Xrotation Yrotation
              JOINT LeftArm
              {
                OFFSET 16.3182 6.10351e-005 0
                CHANNELS 3 Zrotation Xrotation Yrotation
                JOINT LeftForeArm
                {
                  OFFSET 27.0901 0 0
                  CHANNELS 3 Zrotation Xrotation Yrotation
                  JOINT LeftHand
                  {
                    OFFSET 24.5451 1.52588e-005 0
                    CHANNELS 3 Zrotation Xrotation Yrotation
                    End Site
                    {
                      OFFSET 0 0 0
                    }
                  }
                }
              }
            }
            JOINT Neck
            {
              OFFSET 5.0226 -0.0266342 0
              CHANNELS 3 Zrotation Xrotation Yrotation
              JOINT Head
              {
                OFFSET 6.69364 2.86102e-005 0
                CHANNELS 3 Zrotation Xrotation Yrotation
                End Site
                {
                  OFFSET 0 0 0
                }
              }
            }
          }
        }
      }
    }
  }
}
MOTION
Frames:	15
Frame Time:	0.0416667
33.7341 99.1573 26.7823 -150.914 -79.9526 -151.775 -176.792 -1.65155 89.6286 -20.4096 5.42388 -0.337842 74.9358 5.86677 -3.98263 13.8171 -2.36854 4.1762 169.623 -6.07774 85.7271 -8.76685 -20.8874 -2.09428 71.5856 -6.15219 -1.4773 20.5269 -0.662003 2.47826 0.310136 7.58719 -90.0275 11.6999 0.603985 -0.118127 0.0291384 0.598201 -0.144601 -22.5071 0.61156 0.068863 -2.4945 0.611559 0.0688541 90.6413 -31.5545 -104.932 41.9222 -15.1073 -4.86862 0.994945 -26.7704 -17.0301 -24.3249 -0.74802 -4.27693 -83.0974 -52.0409 89.309 -23.934 18.5457 -18.3371 -0.184009 10.301 -6.06856 2.87045 -0.166312 -6.0249 5.16888 -0.649943 -0.575364 -9.96979 -0.679259 2.06462 
33.6565 98.9981 26.4911 -148.197 -80.7116 -149.113 -177.285 -0.297149 89.3004 -21.1027 6.33337 0.110827 75.0345 6.05399 -2.18021 14.5245 -2.79003 4.71606 170.349 -5.15425 86.1803 -9.12968 -24.394 -2.57389 71.4825 -6.49121 -5.10762 20.5812 0.0381646 0.934832 0.355416 7.43179 -90 12.0107 0.70668 -0.0768646 0.339971 0.702609 -0.107893 -22.1967 0.697102 0.139078 -2.18405 0.697108 0.139093 90.467 -31.9161 -105.144 41.9352 -14.8398 -4.17593 3.11985 -25.7838 -16.3368 -26.1306 0.0747808 -8.35164 -83.3448 -52.0258 88.9417 -24.1114 17.9313 -17.6766 0.504054 12.486 -6.34684 -0.469609 -0.118388 -6.16676 3.8364 -0.819758 -1.15121 -9.1114 -0.796498 2.97346 
33.6047 98.9961 26.3963 -149.234 -80.4187 -150.085 -177.152 -0.58304 89.3891 -21.0711 6.31455 0.0436663 75.3472 6.18289 -2.21775 14.5598 -2.91137 4.87416 170.362 -5.45745 86.2504 -9.11178 -24.3893 -2.5612 71.5469 -6.57034 -5.41513 20.3989 -0.138856 1.34111 0.385325 7.48259 -89.9994 11.9092 0.766515 -0.0813592 0.238484 0.762196 -0.115026 -22.2984 0.75553 0.152783 -2.2858 0.755531 0.152782 90.4426 -31.9935 -105.164 41.8211 -14.824 -4.20993 2.75748 -26.3195 -16.6779 -25.4915 -0.0943519 -7.60828 -83.5348 -51.7129 88.6297 -24.4594 17.6143 -17.7351 0.765698 13.1383 -6.30603 -1.21443 -0.119197 -7.41463 3.8133 -0.730005 -0.85024 -8.77563 -0.713466 2.35066 
33.5636 98.9937 26.3169 -149.091 -80.3481 -150.002 -177.231 -0.649415 89.3165 -20.9623 6.23989 0.116355 75.177 6.12097 -2.10227 14.6551 -2.66689 4.55728 170.379 -5.46197 86.241 -9.14099 -24.6851 -2.59669 71.4676 -6.53357 -5.51834 20.2594 0.124316 0.780435 0.390041 7.48338 -90.0241 11.9078 0.764309 -0.130228 0.237069 0.757839 -0.163756 -22.2999 0.768106 0.105512 -2.28724 0.768117 0.105515 90.6576 -31.7156 -104.845 41.8088 -14.4985 -4.20622 2.7289 -28.5211 -16.7741 -25.0838 -0.039441 -8.29235 -83.3583 -52.5115 88.9688 -23.7072 17.8064 -17.8003 0.597735 12.562 -6.52444 -0.853653 -0.117476 -7.20129 3.96937 -0.760149 -0.511622 -9.29754 -0.819533 2.46671 
33.5651 98.9973 26.2215 -149.18 -80.4242 -150.114 -177.348 -0.506666 89.2229 -21.0109 6.16678 0.222426 75.2663 6.13418 -2.30211 14.2473 -2.90698 4.86762 170.319 -5.30993 86.1717 -9.12924 -24.1967 -2.53678 71.4117 -6.4195 -4.78254 20.4918 0.0748616 0.863551 0.364353 7.47443 -90.0258 11.9256 0.71239 -0.128134 0.254827 0.706052 -0.159373 -22.2819 0.717962 0.0919079 -2.26925 0.717957 0.0918956 90.78 -31.5475 -104.665 42.005 -14.1896 -4.35543 2.49066 -30.6108 -16.9198 -24.3701 -0.165581 -8.02722 -83.2142 -52.7462 89.2031 -23.2816 18.0482 -18.0161 0.339847 12.2659 -6.3231 -1.01546 -0.115595 -7.22539 4.43546 -0.722229 -0.376979 -9.67079 -0.815841 2.52673 
33.5286 98.9964 26.2255 -149.381 -80.2058 -150.305 -177.243 -0.729554 89.2947 -20.9938 6.21259 0.1301 75.1769 6.11893 -2.03021 14.667 -2.62734 4.50553 170.395 -5.53518 86.2198 -9.14912 -24.3644 -2.63026 71.4873 -6.49867 -5.15158 20.3042 -0.0835143 1.2294 0.376386 7.49767 -90.0277 11.8791 0.735505 -0.133998 0.20836 0.728891 -0.166246 -22.3285 0.741764 0.0932558 -2.31581 0.741772 0.0932632 90.6927 -31.537 -104.838 42.1048 -13.96 -4.36351 2.40587 -30.1485 -16.6472 -23.7023 -0.022683 -8.85588 -83.2917 -52.5158 89.0675 -23.6044 17.9838 -18.013 0.44323 12.4211 -6.34489 -1.0258 -0.113893 -7.29361 4.44971 -0.786633 -0.512532 -9.33985 -0.856639 2.6642 
33.505 99.0073 26.2025 -149.329 -80.1183 -150.296 -177.21 -0.777204 89.3255 -21.0228 5.99808 0.0852962 75.1759 6.05304 -2.53719 14.5026 -2.9751 4.95759 170.373 -5.59982 86.1885 -9.15528 -24.5211 -2.64812 71.6212 -6.596 -5.39029 19.9566 -0.0515368 1.19459 0.357001 7.49829 -90.0131 11.8778 0.703794 -0.101612 0.207035 0.698641 -0.132506 -22.3296 0.701793 0.114609 -2.31698 0.701796 0.114614 90.4158 -31.6549 -105.335 42.0468 -13.5472 -4.56644 2.76554 -30.1191 -15.8528 -24.4077 0.00496811 -8.89254 -83.1421 -52.4324 89.2796 -23.6396 17.9681 -17.9257 0.465079 12.1701 -6.40435 -1.23518 -0.11263 -7.51229 4.52243 -0.740688 -0.576315 -9.42343 -0.8082 2.76826 
33.4589 99.0085 26.1899 -150.077 -80.028 -150.921 -177.083 -0.907139 89.506 -21.0484 6.40581 0.0787775 75.2624 6.14261 -2.22655 14.3612 -2.88915 4.84507 170.448 -5.76706 86.3137 -9.13844 -24.0961 -2.63942 71.5463 -6.51707 -4.99019 20.1277 0.0148042 1.0336 0.341756 7.52147 -90.0225 11.8315 0.66908 -0.11611 0.16069 0.66333 -0.145445 -22.3758 0.673043 0.0903575 -2.3632 0.673047 0.0903588 90.4516 -31.6574 -105.264 41.8947 -14.2048 -4.48926 2.53456 -30.174 -16.6552 -24.763 -0.249566 -7.4494 -82.9862 -52.5099 89.516 -23.3766 18.085 -18.1917 0.342277 11.8891 -6.31336 -1.168 -0.112232 -7.33938 4.72105 -0.628374 -0.412712 -9.28015 -0.695805 2.35193 
33.4732 98.9895 26.1526 -149.333 -79.9488 -150.262 -177.255 -0.869939 89.3076 -21.0858 5.89666 0.183693 75.1557 6.07474 -2.39744 14.7067 -2.66585 4.55526 170.346 -5.66828 86.1982 -9.1784 -24.8496 -2.59405 71.1561 -6.34182 -5.32648 20.7703 0.166769 0.630468 0.382495 7.48553 -90.0259 11.9035 0.748375 -0.132151 0.232714 0.741842 -0.164967 -22.3042 0.753486 0.098886 -2.29151 0.753494 0.0988927 90.5875 -31.324 -105.117 42.2872 -14.009 -4.24824 2.635 -30.1179 -16.7206 -24.0522 -0.0819165 -8.45461 -83.2307 -52.6214 89.1672 -23.5847 17.8577 -17.9275 0.489036 12.1913 -6.38502 -1.26312 -0.112806 -7.47672 4.12274 -0.750934 -0.0245816 -9.05991 -0.876376 2.24837 
33.4023 99.0159 26.2405 -150.976 -79.4443 -151.575 -176.907 -1.40461 89.8057 -21.3684 6.39875 0.139882 75.4329 6.18487 -2.28266 14.3268 -2.87942 4.83246 170.496 -6.39639 86.4636 -9.16537 -24.3208 -2.63394 71.3221 -6.41033 -5.01927 20.6655 0.0216819 0.961547 0.376911 7.52459 -90.0846 11.8256 0.709812 -0.244391 0.154854 0.698366 -0.275406 -22.3819 0.75044 -0.0197468 -2.36921 0.750437 -0.0197664 90.7513 -31.096 -104.877 42.338 -14.1754 -4.45953 2.7423 -29.4474 -16.5854 -23.8595 -0.075497 -8.40829 -83.0873 -53.0249 89.4147 -23.0701 18.0263 -18.2214 0.264004 11.9297 -6.21127 -1.4757 -0.115417 -7.4883 3.97763 -0.534611 0.332022 -9.12477 -0.729974 2.29902 
33.4173 98.9892 26.2396 -150.485 -79.2068 -151.458 -177.126 -1.68678 89.3011 -21.1462 5.72171 0.134 75.3123 6.15626 -2.52959 14.6585 -2.92676 4.89463 170.074 -6.42579 85.973 -9.21958 -25.6665 -2.54424 71.1383 -6.48948 -6.47878 20.7796 -0.301553 1.66357 0.387566 7.4956 -90.0118 11.8833 0.765152 -0.105335 0.21255 0.759765 -0.138912 -22.3244 0.761431 0.129511 -2.31174 0.761434 0.129512 90.5256 -31.4969 -105.178 42.3738 -14.4162 -4.21946 2.34683 -27.2325 -17.041 -24.0785 -0.219813 -7.23044 -83.1298 -52.4569 89.2996 -23.4806 17.8998 -18.1874 0.417877 12.152 -6.1718 -1.73125 -0.110199 -7.89385 3.58063 -0.513743 -0.297699 -9.15391 -0.630435 2.76296 
33.3338 98.9656 26.3242 -150.976 -78.9412 -152.031 -176.908 -2.01442 89.4277 -21.2124 6.14004 -0.0608362 75.3691 6.28809 -2.14676 14.6725 -2.89989 4.86001 170.111 -6.76743 85.9256 -9.26938 -25.3846 -2.68515 71.3807 -6.56502 -6.06168 20.5137 -0.120293 1.2907 0.386716 7.44903 -90.0187 11.9765 0.760055 -0.119628 0.305727 0.754067 -0.152968 -22.2312 0.760864 0.114343 -2.21855 0.760872 0.114348 90.6947 -31.3509 -104.899 42.4668 -14.3661 -4.48287 2.78314 -27.1732 -16.4198 -24.4255 -0.12942 -7.67053 -83.3336 -52.4982 89.0041 -23.4597 18.3635 -17.943 0.0792808 10.7249 -6.46938 -1.00879 -0.128505 -7.624 2.85805 -0.303771 0.0247579 -9.42485 -0.484717 2.76526 
33.1741 98.9809 26.505 -152.359 -78.2166 -153.343 -176.67 -2.8425 89.6735 -21.3987 6.18997 -0.086728 75.5107 6.31515 -2.50889 14.9321 -2.70599 4.60729 170.094 -7.67431 85.8632 -9.32005 -24.9777 -2.80332 71.4807 -6.46704 -4.93823 20.7869 0.230879 0.48705 0.353923 7.40581 -90.0708 12.063 0.670227 -0.214662 0.392224 0.660122 -0.243953 -22.1443 0.703751 -0.00329474 -2.13167 0.703748 -0.00330107 90.5804 -30.97 -105.257 42.6094 -14.2067 -3.95634 2.19236 -27.9607 -16.9127 -24.9042 -0.502247 -5.75259 -83.097 -52.9611 89.3944 -22.4065 19.6653 -18.0708 -0.831638 9.59688 -6.34865 -0.748376 -0.136191 -7.59065 1.90728 0.102327 0.956151 -9.98485 -0.22364 2.50403 
33.0512 98.9631 26.7117 -155.154 -77.2479 -156.128 -176.431 -4.0642 89.8288 -21.5953 6.69116 -0.0651887 75.8119 6.53299 -2.23888 15.2873 -3.08817 5.10974 169.811 -8.95489 85.6318 -9.35711 -25.1016 -2.78897 71.8893 -6.75061 -5.31617 20.3738 0.0162617 1.00382 0.354136 7.42092 -90.0937 12.0329 0.659911 -0.258983 0.362084 0.647863 -0.287782 -22.1744 0.707226 -0.048673 -2.16174 0.707227 -0.0486776 90.8394 -30.9909 -104.741 42.7791 -13.5789 -3.96039 2.11736 -28.7143 -17.095 -25.1388 -0.456847 -6.09805 -83.2733 -53.1466 89.1539 -22.1413 19.7843 -18.1203 -0.826795 9.13008 -6.79131 -0.12452 -0.155344 -7.68337 1.31049 0.0749187 1.17083 -10.0268 -0.316338 3.04099 
32.8949 98.919 26.8959 -157.544 -75.7831 -158.522 -176.09 -5.51265 90.0633 -22.2473 6.30288 -0.0882788 76.3312 6.69383 -3.06768 15.1874 -3.13686 5.1734 169.583 -10.6448 85.3287 -9.48233 -25.1463 -2.95559 72.3405 -7.01944 -5.35762 19.9681 -0.176083 1.4642 0.345609 7.46451 -90.1193 11.9458 0.631024 -0.306034 0.274978 0.616944 -0.333515 -22.2614 0.693818 -0.10223 -2.24871 0.693826 -0.102229 90.6339 -31.0392 -105.128 42.7331 -12.9149 -3.80949 2.73089 -29.0318 -15.8018 -25.2233 -0.340415 -6.75416 -83.1742 -53.4733 89.3284 -21.7986 19.9097 -17.951 -1.03283 7.94409 -6.92219 0.0464739 -0.151964 -7.26555 0.17855 0.409752 1.88243 -9.62279 -0.0392917 2.66613 
